# xmcd
#
# Track frame offsets:
#	150
#	12696
#	26191
#	35660
#	49523
#	61132
#	74009
#	85266
#	94750
#	104484
#	116462
#	125765
#	137727
#	152220
#	164250
#
# Disc length: 2430 seconds
#
# Revision: 0
# Processed by: cddbd v1.5.2PL0 Copyright (c) Steve Scherf et al.
# Submitted via: EZCDAudioConverter 2.1.7.1
#
DISCID=d6097c0f
DTITLE=V/A - 286_I Just Can't Be Happy Today
DYEAR=1900
DGENRE=
TTITLE0=The Damned - I Just Can't Be Happy Today
TTITLE1=Menace - Screwed Up
TTITLE2=Alternative TV - Life
TTITLE3=Johnny and The Self Abusers - Dead Vandals
TTITLE4=The Vibrators - London Girls
TTITLE5=The Brats - Be A Man
TTITLE6=Crime - Frustration
TTITLE7=Electric Eels - Cyclotron
TTITLE8=Johnny Moped - Incendiary Device
TTITLE9=The Avengers - We Are The One
TTITLE10=Eater - Outside View
TTITLE11=Television Personalities - Look Back In Anger
TTITLE12=Human Switchboard - Fly-In
TTITLE13=Patrik Fitzgerald - Safety Pin Stuck In My Heart
TTITLE14=The Adverts - I Will Walk You Home
EXTD=
EXTT0=
EXTT1=
EXTT2=
EXTT3=
EXTT4=
EXTT5=
EXTT6=
EXTT7=
EXTT8=
EXTT9=
EXTT10=
EXTT11=
EXTT12=
EXTT13=
EXTT14=
PLAYORDER=
